<svg width="190" height="202" viewBox="0 0 190 202" fill="none" xmlns="http://www.w3.org/2000/svg">
<mask id="mask0_4:16" style="mask-type:alpha" maskUnits="userSpaceOnUse" x="8" y="28" width="174" height="174">
<path d="M95 202C142.697 202 181.364 163.241 181.364 115.429C181.364 67.6165 142.697 28.8572 95 28.8572C47.3027 28.8572 8.63636 67.6165 8.63636 115.429C8.63636 163.241 47.3027 202 95 202Z" fill="white"/>
</mask>
<g mask="url(#mask0_4:16)">
<path d="M95 202C142.697 202 181.364 163.241 181.364 115.429C181.364 67.6165 142.697 28.8572 95 28.8572C47.3027 28.8572 8.63636 67.6165 8.63636 115.429C8.63636 163.241 47.3027 202 95 202Z" fill="#E6E6E6"/>
<path d="M181.364 28.8572H8.63636V202H181.364V28.8572Z" fill="#65C9FF"/>
</g>
<mask id="mask1_4:16" style="mask-type:alpha" maskUnits="userSpaceOnUse" x="0" y="0" width="190" height="202">
<path d="M8.63636 115.429C8.63636 163.241 47.3027 202 95 202C142.697 202 181.364 163.241 181.364 115.429H190V0H0V115.429H8.63636Z" fill="white"/>
</mask>
<g mask="url(#mask1_4:16)">
<mask id="mask2_4:16" style="mask-type:alpha" maskUnits="userSpaceOnUse" x="23" y="25" width="144" height="177">
<path d="M112.273 130.298V143.564H115.152C143.77 143.564 166.97 166.82 166.97 195.507V202H23.0303V195.507C23.0303 166.82 46.2301 143.564 74.8485 143.564H77.7273V130.298C65.3216 124.39 56.4043 112.317 54.9166 98.0286C50.7245 97.4346 47.5 93.8233 47.5 89.4572V79.3572C47.5 75.0675 50.6124 71.5066 54.697 70.8197V66.3714C54.697 44.0591 72.7412 25.9714 95 25.9714C117.259 25.9714 135.303 44.0591 135.303 66.3714V70.8197C139.388 71.5066 142.5 75.0675 142.5 79.3572V89.4572C142.5 93.8233 139.276 97.4346 135.083 98.0286C133.596 112.317 124.678 124.39 112.273 130.298Z" fill="white"/>
</mask>
<g mask="url(#mask2_4:16)">
<path d="M112.273 130.298V143.564H115.152C143.77 143.564 166.97 166.82 166.97 195.507V202H23.0303V195.507C23.0303 166.82 46.2301 143.564 74.8485 143.564H77.7273V130.298C65.3216 124.39 56.4043 112.317 54.9166 98.0286C50.7245 97.4346 47.5 93.8233 47.5 89.4572V79.3572C47.5 75.0675 50.6124 71.5066 54.697 70.8197V66.3714C54.697 44.0591 72.7412 25.9714 95 25.9714C117.259 25.9714 135.303 44.0591 135.303 66.3714V70.8197C139.388 71.5066 142.5 75.0675 142.5 79.3572V89.4572C142.5 93.8233 139.276 97.4346 135.083 98.0286C133.596 112.317 124.678 124.39 112.273 130.298Z" fill="#D0C6AC"/>
<path d="M213.03 25.9714H23.0303V227.971H213.03V25.9714Z" fill="#FFDBB4"/>
<path fill-rule="evenodd" clip-rule="evenodd" d="M135.303 82.9644V99.5572C135.303 121.87 117.259 139.957 95 139.957C72.7412 139.957 54.697 121.87 54.697 99.5572V82.9644V93.7858C54.697 116.098 72.7412 134.186 95 134.186C117.259 134.186 135.303 116.098 135.303 93.7858V82.9644Z" fill="black" fill-opacity="0.1"/>
</g>
<mask id="mask3_4:16" style="mask-type:alpha" maskUnits="userSpaceOnUse" x="23" y="132" width="144" height="70">
<path fill-rule="evenodd" clip-rule="evenodd" d="M77.7273 132.073C64.8312 133.519 54.8984 137.469 54.7 147.637C36.0902 155.517 23.0303 173.983 23.0303 195.507V202H166.97V195.507C166.97 173.983 153.91 155.517 135.3 147.637C135.102 137.469 125.169 133.519 112.273 132.073V145.729C112.273 155.291 104.539 163.043 95 163.043C85.4605 163.043 77.7273 155.291 77.7273 145.729V132.073Z" fill="white"/>
</mask>
<g mask="url(#mask3_4:16)">
<path fill-rule="evenodd" clip-rule="evenodd" d="M77.7273 132.073C64.8312 133.519 54.8984 137.469 54.7 147.637C36.0902 155.517 23.0303 173.983 23.0303 195.507V202H166.97V195.507C166.97 173.983 153.91 155.517 135.3 147.637C135.102 137.469 125.169 133.519 112.273 132.073V145.729C112.273 155.291 104.539 163.043 95 163.043C85.4605 163.043 77.7273 155.291 77.7273 145.729V132.073Z" fill="#B7C1DB"/>
<path d="M190 122.643H0V202H190V122.643Z" fill="#25557C"/>
<path fill-rule="evenodd" clip-rule="evenodd" d="M73.4091 167.183V202H68.3712V164.594C69.9573 165.539 71.6435 166.405 73.4091 167.183ZM121.629 164.594V193.703C121.629 195.098 120.501 196.228 119.11 196.228C117.719 196.228 116.591 195.098 116.591 193.703V167.183C118.356 166.405 120.043 165.539 121.629 164.594Z" fill="#F4F4F4"/>
<path fill-rule="evenodd" clip-rule="evenodd" d="M65.4637 131.823C54.6317 133.876 47.1402 137.968 47.1402 145.95C47.1402 160.172 70.9173 171.7 95 171.7C119.083 171.7 142.86 160.172 142.86 145.95C142.86 137.968 135.368 133.876 124.536 131.823C131.075 134.239 135.303 138.302 135.303 145.063C135.303 159.774 115.28 171.7 95 171.7C74.7198 171.7 54.697 159.774 54.697 145.063C54.697 138.302 58.9252 134.239 65.4637 131.823Z" fill="black" fill-opacity="0.16"/>
</g>
<path fill-rule="evenodd" clip-rule="evenodd" d="M84.9242 107.493C84.9242 113.071 89.4353 117.593 95 117.593C100.565 117.593 105.076 113.071 105.076 107.493" fill="black" fill-opacity="0.7"/>
<path fill-rule="evenodd" clip-rule="evenodd" d="M86.3636 93.7856C86.3636 96.9731 90.2303 99.5571 95 99.5571C99.7697 99.5571 103.636 96.9731 103.636 93.7856" fill="black" fill-opacity="0.16"/>
<path d="M76.2879 85.1286C78.6727 85.1286 80.6061 83.1906 80.6061 80.8C80.6061 78.4094 78.6727 76.4714 76.2879 76.4714C73.903 76.4714 71.9697 78.4094 71.9697 80.8C71.9697 83.1906 73.903 85.1286 76.2879 85.1286Z" fill="black" fill-opacity="0.6"/>
<path d="M113.712 85.1286C116.097 85.1286 118.03 83.1906 118.03 80.8C118.03 78.4094 116.097 76.4714 113.712 76.4714C111.327 76.4714 109.394 78.4094 109.394 80.8C109.394 83.1906 111.327 85.1286 113.712 85.1286Z" fill="black" fill-opacity="0.6"/>
<path d="M65.9181 69.374C69.1539 64.8099 76.0023 62.5143 83.0151 64.7812C83.7717 65.0258 84.5829 64.6092 84.8268 63.8508C85.0708 63.0924 84.6553 62.2793 83.8987 62.0348C75.688 59.3807 67.5333 62.1142 63.5715 67.7023C63.111 68.3519 63.263 69.2526 63.911 69.7143C64.559 70.1759 65.4576 70.0235 65.9181 69.374Z" fill="black" fill-opacity="0.6"/>
<path d="M124.06 74.4209C121.242 70.4468 113.518 68.2183 106.864 69.8562C106.092 70.0462 105.312 69.5729 105.123 68.799C104.933 68.0252 105.405 67.2437 106.177 67.0537C113.905 65.1516 122.849 67.7321 126.406 72.7493C126.867 73.3988 126.715 74.2996 126.067 74.7612C125.419 75.2228 124.52 75.0705 124.06 74.4209Z" fill="black" fill-opacity="0.6"/>
<mask id="mask4_4:16" style="mask-type:alpha" maskUnits="userSpaceOnUse" x="0" y="0" width="190" height="202">
<path d="M190 0H0V202H190V0Z" fill="white"/>
</mask>
<g mask="url(#mask4_4:16)">
<mask id="mask5_4:16" style="mask-type:alpha" maskUnits="userSpaceOnUse" x="53" y="70" width="84" height="65">
<path fill-rule="evenodd" clip-rule="evenodd" d="M107.543 122.764C105.734 124.419 103.807 125.164 101.371 124.643C100.952 124.554 99.2436 121.369 94.9999 121.369C90.7562 121.369 89.0477 124.554 88.6283 124.643C86.1927 125.164 84.2656 124.419 82.4566 122.764C79.056 119.653 76.2279 115.362 77.9272 110.681C78.8128 108.241 80.2532 105.562 82.8736 104.785C85.6716 103.955 89.6 104.783 92.4197 104.216C93.3332 104.032 94.3311 103.706 94.9999 103.164C95.6686 103.706 96.6668 104.032 97.5798 104.216C100.4 104.783 104.328 103.955 107.126 104.785C109.747 105.562 111.187 108.241 112.073 110.681C113.772 115.362 110.944 119.653 107.543 122.764ZM135.361 70.7C132.907 76.7601 133.855 84.3047 133.401 90.6661C133.032 95.8368 131.947 103.587 127.367 106.926C125.025 108.634 120.761 111.504 117.701 110.703C115.594 110.152 115.369 104.095 112.6 101.827C109.46 99.2558 105.539 98.1258 101.585 98.3003C99.8785 98.3756 96.428 98.3577 94.9999 99.6729C93.5719 98.3577 90.1216 98.3756 88.4155 98.3003C84.4614 98.1258 80.54 99.2558 77.3995 101.827C74.6309 104.095 74.4063 110.152 72.2996 110.703C69.2391 111.504 64.9756 108.634 62.6331 106.926C58.0525 103.587 56.9685 95.8368 56.599 90.6661C56.1451 84.3047 57.093 76.7601 54.6386 70.7C53.4445 70.7 54.2321 82.3358 54.2321 82.3358V97.0214C54.2548 108.051 61.1275 124.559 76.3656 130.862C80.0923 132.404 88.5337 134.907 94.9999 134.907C101.466 134.907 109.908 132.642 113.634 131.1C128.872 124.797 135.745 108.051 135.768 97.0214V82.3358C135.768 82.3358 136.555 70.7 135.361 70.7Z" fill="white"/>
</mask>
<g mask="url(#mask5_4:16)">
<path fill-rule="evenodd" clip-rule="evenodd" d="M107.543 122.764C105.734 124.419 103.807 125.164 101.371 124.643C100.952 124.554 99.2436 121.369 94.9999 121.369C90.7562 121.369 89.0477 124.554 88.6283 124.643C86.1927 125.164 84.2656 124.419 82.4566 122.764C79.056 119.653 76.2279 115.362 77.9272 110.681C78.8128 108.241 80.2532 105.562 82.8736 104.785C85.6716 103.955 89.6 104.783 92.4197 104.216C93.3332 104.032 94.3311 103.706 94.9999 103.164C95.6686 103.706 96.6668 104.032 97.5798 104.216C100.4 104.783 104.328 103.955 107.126 104.785C109.747 105.562 111.187 108.241 112.073 110.681C113.772 115.362 110.944 119.653 107.543 122.764ZM135.361 70.7C132.907 76.7601 133.855 84.3047 133.401 90.6661C133.032 95.8368 131.947 103.587 127.367 106.926C125.025 108.634 120.761 111.504 117.701 110.703C115.594 110.152 115.369 104.095 112.6 101.827C109.46 99.2558 105.539 98.1258 101.585 98.3003C99.8785 98.3756 96.428 98.3577 94.9999 99.6729C93.5719 98.3577 90.1216 98.3756 88.4155 98.3003C84.4614 98.1258 80.54 99.2558 77.3995 101.827C74.6309 104.095 74.4063 110.152 72.2996 110.703C69.2391 111.504 64.9756 108.634 62.6331 106.926C58.0525 103.587 56.9685 95.8368 56.599 90.6661C56.1451 84.3047 57.093 76.7601 54.6386 70.7C53.4445 70.7 54.2321 82.3358 54.2321 82.3358V97.0214C54.2548 108.051 61.1275 124.559 76.3656 130.862C80.0923 132.404 88.5337 134.907 94.9999 134.907C101.466 134.907 109.908 132.642 113.634 131.1C128.872 124.797 135.745 108.051 135.768 97.0214V82.3358C135.768 82.3358 136.555 70.7 135.361 70.7Z" fill="#331B0C"/>
<path d="M201.515 51.9427H11.5152V227.971H201.515V51.9427Z" fill="#B58143"/>
</g>
</g>
</g>
</svg>
